<svg width="24" height="24" viewBox="0 0 24 24" fill="none" xmlns="http://www.w3.org/2000/svg">
<g clip-path="url(#clip0_101_470)">
<path d="M12.3835 15.43C14.0672 15.43 15.432 14.0652 15.432 12.3816C15.432 10.6979 14.0672 9.3331 12.3835 9.3331C10.6999 9.3331 9.33508 10.6979 9.33508 12.3816C9.33508 14.0652 10.6999 15.43 12.3835 15.43Z" stroke="white" stroke-width="1.74198" stroke-linecap="round" stroke-linejoin="round"/>
<path d="M19.1749 14.9092C19.0458 15.2017 19.0073 15.5261 19.0643 15.8407C19.1214 16.1552 19.2713 16.4455 19.4949 16.674L19.5531 16.7322C19.7334 16.9123 19.8764 17.1262 19.974 17.3617C20.0716 17.5971 20.1219 17.8495 20.1219 18.1043C20.1219 18.3592 20.0716 18.6116 19.974 18.847C19.8764 19.0825 19.7334 19.2963 19.5531 19.4765C19.3729 19.6568 19.1591 19.7998 18.9236 19.8974C18.6882 19.995 18.4358 20.0453 18.1809 20.0453C17.9261 20.0453 17.6737 19.995 17.4383 19.8974C17.2028 19.7998 16.9889 19.6568 16.8088 19.4765L16.7506 19.4183C16.5221 19.1947 16.2318 19.0448 15.9173 18.9877C15.6027 18.9307 15.2783 18.9692 14.9858 19.0983C14.699 19.2212 14.4544 19.4253 14.2821 19.6855C14.1098 19.9456 14.0173 20.2505 14.0161 20.5625V20.7274C14.0161 21.2417 13.8118 21.735 13.4481 22.0987C13.0844 22.4624 12.5911 22.6668 12.0767 22.6668C11.5623 22.6668 11.069 22.4624 10.7053 22.0987C10.3416 21.735 10.1373 21.2417 10.1373 20.7274V20.6401C10.1298 20.3191 10.0259 20.0079 9.83914 19.7467C9.65236 19.4856 9.39135 19.2867 9.09003 19.1759C8.79756 19.0468 8.47312 19.0083 8.15855 19.0653C7.84399 19.1223 7.55372 19.2723 7.32519 19.4959L7.267 19.554C7.08689 19.7344 6.87299 19.8774 6.63755 19.975C6.40212 20.0726 6.14975 20.1228 5.89488 20.1228C5.64002 20.1228 5.38765 20.0726 5.15221 19.975C4.91677 19.8774 4.70288 19.7344 4.52276 19.554C4.34244 19.3739 4.1994 19.16 4.1018 18.9246C4.0042 18.6892 3.95396 18.4368 3.95396 18.1819C3.95396 17.9271 4.0042 17.6747 4.1018 17.4392C4.1994 17.2038 4.34244 16.9899 4.52276 16.8098L4.58094 16.7516C4.80449 16.5231 4.95446 16.2328 5.01149 15.9182C5.06853 15.6037 5.03002 15.2792 4.90094 14.9868C4.77802 14.7 4.57392 14.4554 4.31376 14.2831C4.0536 14.1108 3.74874 14.0183 3.4367 14.0171H3.27185C2.75749 14.0171 2.2642 13.8127 1.90049 13.449C1.53679 13.0853 1.33246 12.592 1.33246 12.0777C1.33246 11.5633 1.53679 11.07 1.90049 10.7063C2.2642 10.3426 2.75749 10.1383 3.27185 10.1383H3.35913C3.68009 10.1308 3.99137 10.0269 4.25251 9.84011C4.51364 9.65334 4.71255 9.39233 4.82337 9.09101C4.95245 8.79853 4.99095 8.4741 4.93392 8.15953C4.87688 7.84497 4.72692 7.5547 4.50337 7.32616L4.44519 7.26798C4.26487 7.08786 4.12182 6.87397 4.02422 6.63853C3.92662 6.40309 3.87639 6.15073 3.87639 5.89586C3.87639 5.64099 3.92662 5.38863 4.02422 5.15319C4.12182 4.91775 4.26487 4.70386 4.44519 4.52374C4.6253 4.34342 4.8392 4.20037 5.07464 4.10277C5.31007 4.00518 5.56244 3.95494 5.81731 3.95494C6.07217 3.95494 6.32454 4.00518 6.55998 4.10277C6.79542 4.20037 7.00931 4.34342 7.18943 4.52374L7.24761 4.58192C7.47615 4.80547 7.76641 4.95543 8.08098 5.01247C8.39554 5.06951 8.71998 5.031 9.01246 4.90192H9.09003C9.37684 4.779 9.62145 4.57489 9.79374 4.31473C9.96603 4.05457 10.0585 3.74971 10.0597 3.43768V3.27283C10.0597 2.75847 10.2641 2.26518 10.6278 1.90147C10.9915 1.53776 11.4848 1.33344 11.9991 1.33344C12.5135 1.33344 13.0068 1.53776 13.3705 1.90147C13.7342 2.26518 13.9385 2.75847 13.9385 3.27283V3.3601C13.9398 3.67214 14.0322 3.977 14.2045 4.23716C14.3768 4.49732 14.6214 4.70142 14.9082 4.82434C15.2007 4.95343 15.5251 4.99193 15.8397 4.93489C16.1543 4.87786 16.4445 4.7279 16.6731 4.50434L16.7312 4.44616C16.9114 4.26584 17.1253 4.1228 17.3607 4.0252C17.5961 3.9276 17.8485 3.87736 18.1034 3.87736C18.3582 3.87736 18.6106 3.9276 18.846 4.0252C19.0815 4.1228 19.2954 4.26584 19.4755 4.44616C19.6558 4.62628 19.7989 4.84017 19.8965 5.07561C19.9941 5.31105 20.0443 5.56342 20.0443 5.81828C20.0443 6.07315 19.9941 6.32552 19.8965 6.56096C19.7989 6.79639 19.6558 7.01029 19.4755 7.1904L19.4173 7.24859C19.1938 7.47712 19.0438 7.76739 18.9868 8.08196C18.9297 8.39652 18.9682 8.72096 19.0973 9.01344V9.09101C19.2202 9.37782 19.4243 9.62242 19.6845 9.79471C19.9447 9.967 20.2495 10.0595 20.5615 10.0607H20.7264C21.2408 10.0607 21.734 10.265 22.0978 10.6287C22.4615 10.9925 22.6658 11.4857 22.6658 12.0001C22.6658 12.5145 22.4615 13.0078 22.0978 13.3715C21.734 13.7352 21.2408 13.9395 20.7264 13.9395H20.6391C20.3271 13.9407 20.0222 14.0332 19.7621 14.2055C19.5019 14.3778 19.2978 14.6224 19.1749 14.9092Z" stroke="white" stroke-width="1.74198" stroke-linecap="round" stroke-linejoin="round"/>
</g>
<defs>
<clipPath id="clip0_101_470">
<rect width="24" height="24" fill="white"/>
</clipPath>
</defs>
</svg>
